<?xml version="1.0" encoding="utf-8"?>
<!DOCTYPE svg PUBLIC "-//W3C//DTD SVG 1.1//EN" "http://www.w3.org/Graphics/SVG/1.1/DTD/svg11.dtd">
<svg version="1.1" id="Layer_1" xmlns="http://www.w3.org/2000/svg" xmlns:xlink="http://www.w3.org/1999/xlink" x="0px" y="0px"
	 width="500px" height="500px" viewBox="0 0 500 500" enable-background="new 0 0 500 500" xml:space="preserve">
<polygon fill="#3C3C46" points="26.299,265.273 108.49,265.273 100.739,249.22 18.545,249.22 "/>
<polygon fill="#3C3C46" points="77.093,445.98 441.032,445.98 431.348,429.932 69.339,429.932 "/>
<polygon fill="#3C3C46" points="441.032,445.98 476.641,239.473 466.956,223.421 431.348,429.932 "/>
<polygon fill="#3C3C46" points="405.424,265.273 441.032,58.767 431.348,42.71 395.741,249.22 "/>
<polygon fill="#1E1E28" points="395.73,249.22 18.545,249.22 54.115,42.71 431.301,42.71 "/>
<polygon fill="#1E1E28" points="431.301,429.932 69.339,429.932 104.909,223.421 466.871,223.421 "/>
<g enable-background="new    ">
	<path fill="#FFFFFF" d="M139.498,117.166c0,6.839-1.098,13.578-3.29,20.221c-2.195,6.646-5.418,12.578-9.675,17.803
		c-4.257,5.225-9.481,9.451-15.674,12.674c-6.192,3.227-13.288,4.838-21.285,4.838l-5.225-0.387l-8.514,48.956H55.711L80.479,80.4
		c2.449-0.645,5.288-1.191,8.514-1.645c3.223-0.451,6.513-0.678,9.869-0.678c6.966,0,12.995,1.034,18.093,3.097
		c5.094,2.064,9.318,4.87,12.674,8.417c3.353,3.55,5.835,7.71,7.45,12.48C138.691,106.847,139.498,111.878,139.498,117.166z
		 M118.987,118.521c0-6.966-1.615-12.385-4.838-16.254c-3.226-3.87-7.546-5.806-12.964-5.806c-1.034,0-2.195,0.13-3.483,0.387
		l-10.062,57.471c0.514,0.13,1.064,0.227,1.645,0.29c0.581,0.066,1.321,0.097,2.225,0.097c4.384,0,8.288-0.997,11.707-2.999
		c3.417-1.998,6.289-4.644,8.611-7.934c2.322-3.289,4.094-7.126,5.321-11.514C118.373,127.875,118.987,123.295,118.987,118.521z"/>
	<path fill="#FFFFFF" d="M211.672,98.202h-35.024l-7.16,40.829h31.348l-3.29,18.383h-31.348l-7.934,45.087h35.024l-3.29,18.77
		h-54.955l24.962-141.838h54.955L211.672,98.202z"/>
	<path fill="#FFFFFF" d="M275.528,221.271l-9.868,0.387l-25.156-85.722l-15.093,85.335h-19.543l24.962-141.838l10.062-0.387
		l25.349,84.174l14.899-83.787h19.544L275.528,221.271z"/>
	<path fill="#FFFFFF" d="M364.345,221.271l-9.867,0.387l-25.156-85.722l-15.094,85.335h-19.543l24.961-141.838l10.062-0.387
		l25.35,84.174l14.9-83.787h19.543L364.345,221.271z"/>
</g>
<g enable-background="new    ">
	<path fill="#FFFFFF" d="M160.816,401.98l-0.967-29.993h-27.284l-11.804,29.993h-19.737l58.438-142.806h14.319l6.966,142.806
		H160.816z M158.688,303.294l-19.157,50.892h19.931L158.688,303.294z"/>
	<path fill="#FFFFFF" d="M275.368,297.876c0,6.839-1.098,13.578-3.29,20.221c-2.194,6.646-5.418,12.578-9.675,17.803
		s-9.481,9.451-15.674,12.674c-6.192,3.227-13.288,4.838-21.285,4.838l-5.225-0.387l-8.514,48.956h-20.124l24.768-140.87
		c2.449-0.645,5.288-1.191,8.514-1.645c3.223-0.451,6.513-0.678,9.869-0.678c6.966,0,12.995,1.034,18.093,3.097
		c5.095,2.064,9.318,4.87,12.675,8.417c3.353,3.55,5.835,7.71,7.449,12.48C274.561,287.557,275.368,292.588,275.368,297.876z
		 M254.857,299.23c0-6.966-1.615-12.385-4.838-16.254c-3.226-3.87-7.546-5.806-12.964-5.806c-1.034,0-2.195,0.13-3.483,0.387
		l-10.062,57.471c0.514,0.13,1.064,0.227,1.645,0.29c0.581,0.066,1.321,0.097,2.225,0.097c4.384,0,8.288-0.997,11.707-2.999
		c3.417-1.998,6.289-4.644,8.611-7.934c2.322-3.289,4.094-7.126,5.321-11.514C254.243,308.585,254.857,304.005,254.857,299.23z"/>
	<path fill="#FFFFFF" d="M354.702,297.876c0,6.839-1.098,13.578-3.29,20.221c-2.194,6.646-5.418,12.578-9.675,17.803
		s-9.481,9.451-15.674,12.674c-6.192,3.227-13.288,4.838-21.285,4.838l-5.225-0.387l-8.515,48.956h-20.123l24.768-140.87
		c2.449-0.645,5.288-1.191,8.514-1.645c3.224-0.451,6.514-0.678,9.869-0.678c6.967,0,12.995,1.034,18.093,3.097
		c5.095,2.064,9.318,4.87,12.675,8.417c3.353,3.55,5.835,7.71,7.449,12.48C353.895,287.557,354.702,292.588,354.702,297.876z
		 M334.191,299.23c0-6.966-1.615-12.385-4.838-16.254c-3.227-3.87-7.547-5.806-12.965-5.806c-1.034,0-2.195,0.13-3.483,0.387
		l-10.062,57.471c0.514,0.13,1.064,0.227,1.645,0.29c0.58,0.066,1.321,0.097,2.225,0.097c4.385,0,8.288-0.997,11.707-2.999
		c3.417-1.998,6.289-4.644,8.611-7.934c2.322-3.289,4.094-7.126,5.321-11.514C333.577,308.585,334.191,304.005,334.191,299.23z"/>
	<path fill="#FFFFFF" d="M420.491,286.072c-3.227-3.096-6.482-5.515-9.772-7.257c-3.289-1.741-6.612-2.612-9.965-2.612
		c-2.709,0-5.098,0.484-7.16,1.451c-2.064,0.968-3.743,2.292-5.031,3.968c-1.291,1.678-2.258,3.516-2.902,5.515
		c-0.646,2.001-0.967,4.097-0.967,6.288c0,5.031,1.418,10.062,4.257,15.094c2.836,5.031,6.062,10.129,9.675,15.287
		c4.257,5.935,8.127,12.257,11.61,18.963c3.483,6.709,5.225,14.062,5.225,22.06c0,5.805-0.904,11.126-2.709,15.964
		c-1.809,4.838-4.29,8.968-7.45,12.384c-3.162,3.42-6.936,6.096-11.319,8.03c-4.388,1.936-9.225,2.903-14.513,2.903
		c-7.227,0-13.643-1.451-19.254-4.354c-5.611-2.902-10.612-6.222-14.996-9.965l8.32-17.416c4.127,3.87,8.19,7.063,12.19,9.579
		c3.997,2.516,8.447,3.773,13.352,3.773c4.901,0,8.901-1.869,11.997-5.612c3.097-3.739,4.645-8.384,4.645-13.932
		c0-2.836-0.454-5.578-1.354-8.224c-0.904-2.643-2.065-5.288-3.483-7.934c-1.421-2.643-2.999-5.225-4.74-7.74
		c-1.742-2.516-3.517-5.062-5.321-7.644c-1.936-2.966-3.84-5.933-5.709-8.901c-1.871-2.966-3.579-6.028-5.128-9.191
		c-1.548-3.159-2.775-6.546-3.676-10.159c-0.904-3.609-1.354-7.416-1.354-11.416c0-5.545,0.9-10.576,2.709-15.094
		c1.805-4.514,4.287-8.384,7.449-11.61c3.16-3.223,6.899-5.738,11.224-7.546c4.32-1.806,9.062-2.709,14.223-2.709
		c6.448,0,11.997,1.194,16.641,3.579c4.645,2.389,8.448,4.808,11.417,7.257L420.491,286.072z"/>
</g>
</svg>
